<!DOCTYPE svg PUBLIC "-//W3C//DTD SVG 20010904//EN" "http://www.w3.org/TR/2001/REC-SVG-20010904/DTD/svg10.dtd">
<svg version="1.0" xmlns="http://www.w3.org/2000/svg" width="512px" height="512px" viewBox="0 0 5120 5120" preserveAspectRatio="xMidYMid meet">
<g id="layer101" fill="#000000" stroke="none">
 <path d="M2049 4822 c-277 -159 -593 -341 -701 -405 -108 -64 -270 -159 -360 -211 -90 -51 -270 -156 -400 -232 l-237 -139 -4 -1268 -5 -1267 31 -24 c18 -13 115 -70 217 -126 448 -249 942 -535 1733 -1001 120 -71 222 -129 228 -129 20 0 775 426 1164 658 94 56 369 217 612 359 l443 258 0 1271 0 1271 -23 21 c-12 11 -48 33 -80 47 -32 14 -172 92 -310 174 -139 81 -373 218 -522 303 -148 86 -494 284 -767 442 -274 157 -502 286 -506 286 -5 0 -235 -130 -513 -288z"/>
 </g>
<g id="layer102" fill="#0032e1" stroke="none">
 <path d="M2270 4217 c-151 -90 -501 -293 -778 -452 l-502 -289 2 -904 3 -904 240 -140 c132 -77 296 -173 365 -212 69 -40 222 -129 340 -198 301 -176 611 -348 627 -348 19 0 913 513 1356 777 l207 124 0 793 c0 436 3 833 6 883 7 89 7 89 -24 124 -16 19 -67 54 -113 78 -46 25 -181 102 -299 171 -281 165 -1121 647 -1140 654 -9 3 -131 -63 -290 -157z"/>
 </g>
<g id="layer103" fill="#ffffff" stroke="none">
 <path d="M2330 3564 c-102 -58 -317 -182 -478 -276 l-292 -170 2 -555 3 -555 210 -122 c116 -67 318 -185 450 -261 132 -76 252 -145 266 -153 25 -15 31 -12 183 72 87 49 260 147 384 220 125 73 266 154 314 182 82 45 88 51 88 81 0 34 -9 40 -240 173 -133 77 -159 90 -170 90 -6 0 -124 -65 -261 -145 l-251 -145 -56 30 c-32 17 -144 81 -249 143 l-193 112 0 280 0 280 73 39 c39 21 150 86 244 143 l173 104 177 -102 c98 -55 215 -123 261 -151 l82 -49 143 82 c263 152 262 151 265 185 3 31 1 33 -320 220 -178 103 -386 226 -463 271 -76 46 -144 83 -150 83 -5 0 -93 -48 -195 -106z"/>
 </g>

</svg>