<?xml version="1.0" encoding="utf-8"?>
<!DOCTYPE svg PUBLIC "-//W3C//DTD SVG 20010904//EN" "http://www.w3.org/TR/2001/REC-SVG-20010904/DTD/svg10.dtd">
<svg version="1.0" xmlns="http://www.w3.org/2000/svg" width="20px" height="20px" viewBox="0 0 20 20" preserveAspectRatio="xMidYMid meet">
 <g fill="#000001">
  <path d="M9.12 19.46 c-0.45 -0.26 -0.97 -0.55 -1.16 -0.66 -0.57 -0.32 -2.28 -1.31 -3.36 -1.95 -0.56 -0.33 -1.52 -0.89 -2.12 -1.24 l-1.10 -0.64 -0.03 -2.86 c-0.02 -1.57 -0.03 -3.81 -0.02 -4.97 l0.01 -2.12 0.38 -0.22 c0.21 -0.12 0.54 -0.32 0.74 -0.43 2 -1.12 3.25 -1.84 5.54 -3.19 1.38 -0.81 1.89 -1.10 1.95 -1.10 0.08 0 1.20 0.62 3.09 1.71 0.63 0.36 1.30 0.75 1.50 0.87 0.20 0.11 1.04 0.61 1.88 1.10 0.84 0.49 1.66 0.98 1.84 1.08 l0.32 0.19 0.01 4.99 0.01 4.98 -0.19 0.12 c-0.10 0.07 -0.20 0.12 -0.22 0.12 -0.04 0 -0.80 0.43 -1.46 0.82 -1.18 0.70 -6.70 3.86 -6.75 3.86 -0.02 0 -0.41 -0.21 -0.86 -0.46z m2.65 -3.41 c1 -0.57 2.08 -1.19 2.41 -1.38 0.33 -0.20 0.85 -0.49 1.16 -0.67 0.31 -0.17 0.62 -0.38 0.70 -0.46 0.13 -0.14 0.13 -0.16 0.11 -0.35 -0.01 -0.11 -0.02 -1.66 -0.02 -3.44 l0 -3.24 -1.29 -0.76 c-1.94 -1.14 -4.10 -2.38 -4.58 -2.64 l-0.25 -0.13 -0.33 0.17 c-0.33 0.17 -1.40 0.78 -2.79 1.59 -0.41 0.24 -0.92 0.54 -1.14 0.66 -0.22 0.13 -0.73 0.42 -1.12 0.66 l-0.73 0.43 -0.02 1.85 c-0.02 1.02 -0.02 2.61 -0.02 3.54 l0.01 1.70 1.18 0.68 c0.65 0.38 1.78 1.03 2.52 1.46 1.28 0.74 2.36 1.37 2.39 1.37 0.01 0 0.83 -0.47 1.82 -1.04z"/>
  <path d="M8.74 13.72 c-0.57 -0.33 -1.41 -0.81 -1.86 -1.07 l-0.82 -0.48 -0.01 -0.22 c-0.01 -0.12 -0 -1.10 0.01 -2.19 l0.03 -1.97 1.69 -0.98 c0.92 -0.54 1.76 -1.02 1.85 -1.07 l0.17 -0.10 0.19 0.10 c0.10 0.05 0.58 0.31 1.05 0.58 2.60 1.49 2.51 1.43 2.46 1.59 -0.03 0.11 -0.20 0.22 -1.03 0.70 -0.38 0.22 -0.53 0.29 -0.60 0.27 -0.05 -0.01 -0.52 -0.26 -1.04 -0.56 l-0.94 -0.54 -0.81 0.47 c-0.45 0.26 -0.88 0.50 -0.96 0.55 l-0.15 0.08 0 1.10 0 1.10 0.18 0.09 c0.10 0.05 0.52 0.29 0.93 0.53 0.42 0.25 0.76 0.45 0.78 0.46 0.01 0.01 0.42 -0.22 0.90 -0.49 0.48 -0.28 0.94 -0.54 1.02 -0.59 l0.14 -0.08 0.69 0.40 c0.71 0.40 0.92 0.56 0.92 0.67 0 0.03 -0.06 0.11 -0.14 0.16 -0.22 0.16 -3.48 2.06 -3.54 2.06 -0.04 0 -0.53 -0.27 -1.10 -0.60z"/>
 </g>
 <g fill="#ffffff">
  <path d="M9.46 14.13 c-0.18 -0.10 -1.01 -0.58 -1.85 -1.06 l-1.53 -0.88 0 -2.19 0 -2.18 1.84 -1.07 c1.42 -0.82 1.86 -1.06 1.93 -1.04 0.19 0.06 3.46 1.93 3.60 2.06 0.11 0.11 0.06 0.24 -0.16 0.38 -0.55 0.36 -1.34 0.78 -1.42 0.76 -0.05 -0.01 -0.51 -0.26 -1.04 -0.57 l-0.96 -0.54 -0.85 0.49 c-0.47 0.27 -0.90 0.52 -0.96 0.55 l-0.11 0.06 0 1.10 0 1.10 0.14 0.07 c0.08 0.04 0.50 0.28 0.94 0.55 0.44 0.26 0.81 0.48 0.82 0.48 0.01 0 1.53 -0.87 1.94 -1.11 0.10 -0.06 0.12 -0.05 0.68 0.27 1.08 0.62 1.14 0.68 0.93 0.87 -0.15 0.13 -3.49 2.09 -3.57 2.08 -0.03 0 -0.20 -0.08 -0.38 -0.18z"/>
 </g>
</svg>