<?xml version="1.0" encoding="UTF-8" standalone="no"?>
<svg
   xmlns:dc="http://purl.org/dc/elements/1.1/"
   xmlns:cc="http://creativecommons.org/ns#"
   xmlns:rdf="http://www.w3.org/1999/02/22-rdf-syntax-ns#"
   xmlns:svg="http://www.w3.org/2000/svg"
   xmlns="http://www.w3.org/2000/svg"
   xmlns:sodipodi="http://sodipodi.sourceforge.net/DTD/sodipodi-0.dtd"
   xmlns:inkscape="http://www.inkscape.org/namespaces/inkscape"
   version="1.0"
   width="512px"
   height="512px"
   viewBox="0 0 512 512"
   preserveAspectRatio="xMidYMid meet"
   id="svg12"
   sodipodi:docname="Hole.svg"
   inkscape:version="1.0.2 (e86c870879, 2021-01-15)">
  <metadata
     id="metadata18">
    <rdf:RDF>
      <cc:Work
         rdf:about="">
        <dc:format>image/svg+xml</dc:format>
        <dc:type
           rdf:resource="http://purl.org/dc/dcmitype/StillImage" />
      </cc:Work>
    </rdf:RDF>
  </metadata>
  <defs
     id="defs16" />
  <sodipodi:namedview
     pagecolor="#ffffff"
     bordercolor="#666666"
     borderopacity="1"
     objecttolerance="10"
     gridtolerance="10"
     guidetolerance="10"
     inkscape:pageopacity="0"
     inkscape:pageshadow="2"
     inkscape:window-width="1366"
     inkscape:window-height="710"
     id="namedview14"
     showgrid="false"
     inkscape:zoom="1.1152344"
     inkscape:cx="256.89667"
     inkscape:cy="180.52255"
     inkscape:window-x="0"
     inkscape:window-y="32"
     inkscape:window-maximized="1"
     inkscape:current-layer="svg12" />
  <g
     fill="#000104"
     id="g6"
     transform="matrix(0.89738298,0,0,0.89738298,27.591596,30.437295)">
    <path
       d="m 224.4,492.9 c -34,-19.3 -52,-29.7 -135.9,-78.7 L 35.5,383.3 35.2,256.4 35,129.5 l 6.2,-3.8 c 3.5,-2.1 19.1,-11.1 34.8,-19.9 53.7,-30.3 71.5,-40.5 96,-55 13.5,-8 37.7,-22.2 53.8,-31.7 l 29.4,-17.2 20.1,11.2 c 32,17.7 58.3,32.9 116.2,66.9 29.7,17.5 60.9,35.8 69.4,40.7 l 15.3,8.9 0.4,127 0.4,127 -2.3,2.2 c -1.2,1.1 -4.8,3.3 -8,4.7 -3.2,1.4 -17.2,9.2 -31,17.4 -13.9,8.1 -37.3,21.8 -52.2,30.3 -14.8,8.6 -49.4,28.4 -76.7,44.2 -27.4,15.7 -49.9,28.6 -50.1,28.6 -0.2,0 -14.7,-8.1 -32.3,-18.1 z m 77.4,-82.1 C 326.9,396.5 357.2,379 369,372 c 11.8,-6.9 25.1,-14.6 29.5,-16.9 4.4,-2.3 9.5,-5.4 11.3,-6.7 l 3.2,-2.5 v -89.2 -89.2 l -2.8,-1.6 c -1.5,-0.8 -13.9,-8.2 -27.7,-16.4 -13.7,-8.1 -47.7,-27.8 -75.3,-43.7 L 256.8,76.8 236.7,88 c -11.1,6.2 -46.6,26.6 -78.9,45.4 l -58.7,34.1 0.2,89.9 0.2,89.9 52,29.9 c 28.6,16.5 63.2,36.6 77,44.8 13.7,8.2 25.6,14.9 26.3,14.9 0.8,0.1 21.9,-11.7 47,-26.1 z"
       id="path2" />
    <path
       d="m 221.9,350.4 c -16.7,-9.7 -38.6,-22.3 -48.6,-28.1 L 155,311.8 v -55.1 -55.2 l 2.2,-1.4 c 2,-1.3 36,-21 79.5,-46.2 l 15.2,-8.8 24.8,14.3 c 76,43.5 69.3,39.4 69.3,43.1 0,3.8 -1,4.7 -12.5,11.2 -3.8,2.2 -11.8,6.7 -17.7,10.1 l -10.6,6.2 -25.7,-14.9 -25.7,-14.9 -11.1,6.3 c -6.2,3.4 -17.3,9.8 -24.7,14.2 l -13.5,8 -0.3,27.6 -0.2,27.6 4.7,2.7 c 2.7,1.5 13.7,8 24.5,14.5 l 19.8,11.8 21.7,-12.6 c 12,-6.9 23.5,-13.7 25.5,-14.9 2.1,-1.3 4.2,-2.4 4.8,-2.4 0.5,0 10,5.2 21.1,11.6 l 20,11.7 -0.3,3.5 c -0.3,3.9 4.1,1.1 -62.3,39.9 -13.2,7.7 -25.6,15 -27.6,16.2 l -3.5,2.1 z"
       id="path4" />
  </g>
  <g
     fill="#ffffff"
     id="g10"
     transform="matrix(0.89738298,0,0,0.89738298,27.591596,30.437295)">
    <path
       d="m 226.4,352.8 c -14.2,-8.3 -28.1,-16.2 -30.9,-17.8 -2.7,-1.5 -12.6,-7.2 -22,-12.7 l -17,-9.9 v -55.9 -55.8 l 13,-7.7 c 7.2,-4.2 25.2,-14.6 40,-23.2 14.9,-8.5 30.4,-17.6 34.5,-20 l 7.6,-4.5 26.5,15.1 c 69.2,39.4 67.9,38.6 67.9,42.2 0,3.2 -0.5,3.6 -13.2,11.2 -18,10.7 -26.3,15.2 -27.7,15.2 -0.6,0 -10.7,-5.5 -22.4,-12.2 -11.7,-6.7 -23,-13.2 -25.2,-14.4 l -4.1,-2.3 -24.4,14.2 -24.5,14.2 v 28 27.9 l 7,3.9 c 3.9,2.2 14.8,8.6 24.2,14.3 l 17.3,10.3 7.2,-4.1 c 4,-2.2 15.7,-9 26.1,-15 l 18.8,-11 11.2,6.4 c 31.3,18 29.8,16.9 29.5,20.7 -0.3,3.2 -1,3.7 -31.8,21.8 -17.3,10.2 -38.3,22.4 -46.6,27.2 l -15.1,8.8 z"
       id="path8" />
  </g>
</svg>
