<?xml version="1.0" encoding="UTF-8" standalone="no"?>
<svg
   xmlns:dc="http://purl.org/dc/elements/1.1/"
   xmlns:cc="http://creativecommons.org/ns#"
   xmlns:rdf="http://www.w3.org/1999/02/22-rdf-syntax-ns#"
   xmlns:svg="http://www.w3.org/2000/svg"
   xmlns="http://www.w3.org/2000/svg"
   xmlns:sodipodi="http://sodipodi.sourceforge.net/DTD/sodipodi-0.dtd"
   xmlns:inkscape="http://www.inkscape.org/namespaces/inkscape"
   width="450"
   height="450"
   version="1.1"
   viewBox="0 0 119.06 119.06"
   id="svg8"
   sodipodi:docname="Logo3.svg"
   inkscape:version="1.0.2 (e86c870879, 2021-01-15)">
  <metadata
     id="metadata14">
    <rdf:RDF>
      <cc:Work
         rdf:about="">
        <dc:format>image/svg+xml</dc:format>
        <dc:type
           rdf:resource="http://purl.org/dc/dcmitype/StillImage" />
        <dc:title></dc:title>
      </cc:Work>
    </rdf:RDF>
  </metadata>
  <defs
     id="defs12" />
  <sodipodi:namedview
     inkscape:document-rotation="0"
     pagecolor="#868686"
     bordercolor="#666666"
     borderopacity="1"
     objecttolerance="10"
     gridtolerance="10"
     guidetolerance="10"
     inkscape:pageopacity="0"
     inkscape:pageshadow="2"
     inkscape:window-width="1366"
     inkscape:window-height="710"
     id="namedview10"
     showgrid="true"
     inkscape:snap-bbox="true"
     inkscape:bbox-nodes="true"
     inkscape:snap-bbox-edge-midpoints="true"
     inkscape:snap-nodes="false"
     showguides="true"
     inkscape:guide-bbox="true"
     inkscape:zoom="1.0182338"
     inkscape:cx="257.1847"
     inkscape:cy="282.40893"
     inkscape:window-x="0"
     inkscape:window-y="32"
     inkscape:window-maximized="1"
     inkscape:current-layer="g6">
    <inkscape:grid
       type="xygrid"
       id="grid839" />
    <sodipodi:guide
       position="59.53,62.175778"
       orientation="1,0"
       id="guide841" />
  </sodipodi:namedview>
  <g
     transform="matrix(1.5563399,0,0,1.5563399,-32.294054,-313.29122)"
     id="g6">
    <rect
       x="42"
       y="220"
       width="34"
       height="34"
       fill="none"
       id="rect2" />
    <g
       fill="#000000"
       id="g124"
       transform="matrix(0.17,0,0,0.17,20.960345,201.3)">
      <path
         d="M 213,272.4 C 200.3,265.1 188.2,258.1 174.3,250 L 165,244.6 V 210 175.5 l 11.3,-6.4 c 6.1,-3.6 19.6,-11.4 29.9,-17.4 l 18.7,-10.9 17.6,10.1 c 9.7,5.6 23.1,13.4 29.8,17.4 l 12.2,7.3 0.3,34.6 0.2,34.6 -5.2,2.9 c -2.9,1.6 -12.9,7.4 -22.3,12.8 -22.2,12.9 -32.2,18.5 -32.6,18.5 -0.2,0 -5.6,-3 -11.9,-6.6 z"
         id="path122" />
    </g>
    <g
       fill="#0032e1"
       id="g128"
       transform="matrix(0.17,0,0,0.17,20.960345,201.3)">
      <path
         d="m 205.5,248.9 c -10.4,-6.1 -20,-11.7 -21.2,-12.5 C 182,235 182,234.8 182,210.2 v -24.8 l 9.3,-5.3 c 32.6,-19 33.7,-19.5 36.5,-17.9 1.5,0.8 11.1,6.3 21.5,12.3 l 18.7,10.9 -0.2,25 -0.3,25 -21.4,12.3 c -11.8,6.8 -21.5,12.3 -21.5,12.2 -0.1,0 -8.6,-5 -19.1,-11 z"
         id="path126" />
    </g>
    <g
       fill="#ffffff"
       id="g132"
       transform="matrix(0.17,0,0,0.17,20.960345,201.3)">
      <path
         d="m 210.2,232.7 -12.2,-7.2 0.2,-15.5 0.3,-15.5 12.8,-7.3 12.7,-7.4 12.7,7.4 c 6.9,4 12.6,7.7 12.6,8.3 0,0.5 -2.4,2.4 -5.3,4.2 l -5.4,3.2 -5.5,-3.1 c -3.1,-1.8 -6.3,-3.6 -7.2,-4.1 -1.3,-0.8 -3.3,-0.1 -8.3,2.8 l -6.6,3.9 v 7.7 7.7 l 6.1,3.6 c 3.3,2 6.5,3.6 7,3.6 0.5,0 4,-1.7 7.7,-3.7 l 6.8,-3.7 5.7,3.3 c 3.1,1.8 5.5,3.6 5.2,4.1 -0.9,1.4 -24.3,15 -25.7,15 -0.7,-0.1 -6.8,-3.3 -13.6,-7.3 z"
         id="path130" />
    </g>
  </g>
</svg>
